<?xml version="1.0" encoding="UTF-8"?>
<svg version="1.1" xmlns="http://www.w3.org/2000/svg" width="953" height="406">
<path d="M0 0 C1.00224609 -0.01611328 2.00449219 -0.03222656 3.03710938 -0.04882812 C8.95111431 -0.05272148 13.23354924 0.43161545 18.4375 3.3125 C20.51050538 5.81738151 20.45766535 6.99657614 20.25 10.25 C18.72472081 15.99912925 15.63638304 19.22411388 11.4375 23.3125 C10.0484048 26.0906904 10.27418449 28.39784745 10.23217773 31.50634766 C10.21223251 32.80754547 10.19228729 34.10874329 10.17173767 35.44937134 C10.15475327 36.8751005 10.13787447 38.30083093 10.12109375 39.7265625 C10.10052479 41.18102613 10.07952834 42.63548377 10.05812073 44.0899353 C10.00289396 47.92036088 9.9534874 51.75084045 9.90527344 55.58135986 C9.8550628 59.4891847 9.79937446 63.396931 9.74414062 67.3046875 C9.63655167 74.97389185 9.53510838 82.64316145 9.4375 90.3125 C10.52546875 90.37018555 11.6134375 90.42787109 12.734375 90.48730469 C43.38890281 92.16495485 77.08867217 96.0394714 100.4375 118.3125 C108.78387214 127.63421448 112.21671497 138.82881104 111.75390625 151.25 C110.54744449 162.92735824 104.489961 174.44002275 95.4296875 181.984375 C87.11728473 188.18438498 77.64853372 192.10374363 68.1640625 196.1328125 C67.45781738 196.43509766 66.75157227 196.73738281 66.02392578 197.04882812 C64.67964482 197.62139806 63.33186557 198.18585695 61.97998047 198.74023438 C57.29658693 200.72367518 53.41769577 203.12633318 49.4375 206.3125 C49.1075 207.3025 48.7775 208.2925 48.4375 209.3125 C49.0459375 209.45945313 49.654375 209.60640625 50.28125 209.7578125 C74.91630375 216.06148802 74.91630375 216.06148802 83.4375 224.3125 C83.98664063 224.83457031 84.53578125 225.35664063 85.1015625 225.89453125 C92.52472317 233.70164851 94.76928088 243.91482359 94.65625 254.3984375 C93.92460719 264.14496489 89.80571915 271.90535291 82.4375 278.3125 C69.13011028 288.68152766 49.20030499 291.73273912 32.83984375 293.7578125 C25.10489399 294.73467183 19.3073806 296.02617555 13.94921875 301.9609375 C7.19013779 311.41168787 6.92372215 324.12939065 6.4375 335.3125 C19.74132974 331.02008199 30.5472298 324.38925357 41.69555664 316.16259766 C55.71483019 305.88804569 68.99624374 299.22249348 86.4375 297.3125 C86.4375 297.9725 86.4375 298.6325 86.4375 299.3125 C85.61507812 299.71339844 84.79265625 300.11429687 83.9453125 300.52734375 C76.00544982 304.57062255 69.88841388 309.09435106 63.4375 315.3125 C62.04803239 316.50744214 60.65255998 317.69545243 59.25 318.875 C56.57439063 321.19672116 54.23188627 323.61413601 51.9375 326.3125 C48.42431012 330.42569534 44.63338001 333.90558888 40.4375 337.3125 C39.52871094 338.05886719 38.61992187 338.80523437 37.68359375 339.57421875 C28.86140309 346.53305232 20.60772433 350.81404525 9.4375 352.3125 C9.36455215 352.93002136 9.29160431 353.54754272 9.21644592 354.18377686 C8.4570491 360.60791439 7.69405091 367.03161688 6.92895508 373.45507812 C6.64384966 375.85275469 6.35966429 378.25054084 6.07641602 380.6484375 C5.66924709 384.09404217 5.25877671 387.53923987 4.84765625 390.984375 C4.65853416 392.59394073 4.65853416 392.59394073 4.46559143 394.23602295 C4.34554245 395.23675842 4.22549347 396.2374939 4.10180664 397.26855469 C3.9974379 398.14791687 3.89306915 399.02727905 3.78553772 399.93328857 C3.46652534 402.11408067 3.01578498 404.1875091 2.4375 406.3125 C0.4575 406.3125 -1.5225 406.3125 -3.5625 406.3125 C-11.86972473 390.51892254 -13.01359542 373.77655486 -10.5625 356.3125 C-11.3153125 356.28671875 -12.068125 356.2609375 -12.84375 356.234375 C-24.3920544 355.61771797 -37.71074769 353.84942742 -47.5625 347.3125 C-48.16191406 346.92835938 -48.76132813 346.54421875 -49.37890625 346.1484375 C-55.94574587 341.29776979 -59.87173309 333.20150692 -61.5625 325.3125 C-62.93671685 305.3274606 -62.93671685 305.3274606 -56.5625 297.3125 C-49.21798195 288.91876509 -38.18278168 281.85259389 -27.5625 278.3125 C-28.14569486 273.49929688 -29.6270893 269.43843434 -31.625 265.0625 C-34.5625 258.55563501 -34.5625 258.55563501 -34.5625 256.3125 C-40.36152601 255.19338972 -44.67250344 255.41337025 -50.4375 256.75 C-70.37976685 261.06184148 -90.18903247 258.1653913 -107.5625 247.3125 C-115.48537801 241.15437519 -120.06182947 233.21692549 -121.5625 223.3125 C-122.47730155 212.63981521 -119.94300647 203.92976829 -113.5625 195.3125 C-102.80161572 182.60903328 -82.71337778 178.35357793 -67.5625 173.3125 C-67.95630859 172.26271973 -68.35011719 171.21293945 -68.75585938 170.13134766 C-70.21276579 166.24504245 -71.66538548 162.35714684 -73.11669922 158.46875 C-73.7460592 156.78439164 -74.37658897 155.10046991 -75.00830078 153.41699219 C-75.91484799 151.00048174 -76.81720972 148.58244463 -77.71875 146.1640625 C-78.00310913 145.4088028 -78.28746826 144.65354309 -78.58044434 143.87539673 C-80.5625 138.54024341 -80.5625 138.54024341 -80.5625 136.3125 C-75.66957468 136.21338348 -70.77723779 136.14091601 -65.88354492 136.09277344 C-64.22002987 136.07269793 -62.55658504 136.04543124 -60.89331055 136.01074219 C-58.4977076 135.96204234 -56.10304008 135.93949144 -53.70703125 135.921875 C-52.59736748 135.89090729 -52.59736748 135.89090729 -51.46528625 135.85931396 C-47.83597274 135.85774831 -45.76453201 136.18488559 -42.66870117 138.14038086 C-40.050055 140.84098303 -38.55032895 143.72148122 -37.0625 147.125 C-36.76698242 147.77500977 -36.47146484 148.42501953 -36.16699219 149.09472656 C-33.54611357 155.00945045 -31.55807465 161.07375081 -29.703125 167.265625 C-28.62622264 170.142282 -27.99650312 171.51773003 -25.5625 173.3125 C-21.66652133 174.78684165 -21.66652133 174.78684165 -13.5625 174.3125 C-13.5625 156.1625 -13.5625 138.0125 -13.5625 119.3125 C-31.28679777 121.90394512 -31.28679777 121.90394512 -47.87890625 126.48046875 C-60.52128166 130.4001572 -74.31891549 128.42757646 -87.125 126.5 C-88.24302002 126.3347583 -89.36104004 126.1695166 -90.51293945 125.99926758 C-105.25893392 123.63879765 -105.25893392 123.63879765 -109.5625 118.5 C-111.5625 115.3125 -111.5625 115.3125 -111.6875 112.3125 C-109.79258546 107.25939457 -106.85025406 103.7062763 -102.03125 101.3359375 C-100.71624047 100.76779508 -99.39280083 100.21885257 -98.0625 99.6875 C-97.36342529 99.39536621 -96.66435059 99.10323242 -95.9440918 98.80224609 C-75.09475565 90.26942279 -54.53732791 88.21018983 -32.87133789 95.17797852 C-27.53113823 96.89350683 -23.18903893 97.90476726 -17.5625 97.3125 C-15.51481151 95.7902125 -14.67315017 94.92821086 -14.21795654 92.39529419 C-14.23207581 91.67203949 -14.24619507 90.94878479 -14.26074219 90.20361328 C-14.26906067 89.37989227 -14.27737915 88.55617126 -14.28594971 87.70748901 C-14.32229523 86.37114914 -14.32229523 86.37114914 -14.359375 85.0078125 C-14.37280945 84.07687775 -14.3862439 83.14594299 -14.40008545 82.1867981 C-14.42929649 80.21822519 -14.4646194 78.24973482 -14.50561523 76.28137207 C-14.5601901 73.43305589 -14.5876324 70.58607389 -14.60351562 67.73730469 C-14.63021506 63.144492 -14.69115211 58.55313522 -14.77001953 53.9609375 C-14.79861255 52.09417458 -14.81963115 50.22728196 -14.83349609 48.36035156 C-14.86811573 31.35997238 -14.86811573 31.35997238 -21.8125 16.125 C-24.28513742 12.15111844 -24.16934604 9.93970106 -23.5625 5.3125 C-18.56246161 -0.93754799 -7.21407216 -0.02328622 0 0 Z M9.4375 119.3125 C8.85678675 122.03040781 8.85678675 122.03040781 8.98339844 125.16088867 C8.98370056 126.3619072 8.98400269 127.56292572 8.98431396 128.80033875 C9.00495911 130.09728165 9.02560425 131.39422455 9.046875 132.73046875 C9.05433686 134.0713873 9.06003006 135.41231676 9.06402588 136.75325012 C9.07928701 140.27987866 9.11857151 143.80584656 9.1628418 147.33221436 C9.20378503 150.93167178 9.22203478 154.53123613 9.2421875 158.13085938 C9.28506634 165.19167627 9.35332255 172.25204497 9.4375 179.3125 C10.87758918 179.5148157 12.3193506 179.7052535 13.76171875 179.890625 C14.56440186 179.99793945 15.36708496 180.10525391 16.1940918 180.21582031 C18.60799316 180.48658225 18.60799316 180.48658225 21.25 179.0625 C24.55080786 174.91291298 25.80108573 170.30918478 27.4375 165.3125 C36.24022975 140.88043377 36.24022975 140.88043377 42.4375 137.3125 C45.11696367 136.98845396 47.58360124 136.82424669 50.265625 136.80078125 C50.92997559 136.78414429 51.59432617 136.76750732 52.27880859 136.75036621 C54.74805411 136.69276175 57.21783582 136.66036266 59.6875 136.625 C65.215 136.521875 70.7425 136.41875 76.4375 136.3125 C72.1475 147.8625 67.8575 159.4125 63.4375 171.3125 C64.4275 171.9725 65.4175 172.6325 66.4375 173.3125 C74.4052364 169.08014103 81.96849681 164.02534523 85.4375 155.3125 C86.59032375 147.03643897 85.40467349 140.09693209 80.4375 133.3125 C72.30140317 124.77143907 59.81158021 122.69920538 48.6875 120.6875 C47.54949951 120.47585205 46.41149902 120.2642041 45.23901367 120.04614258 C26.33624657 115.04036534 26.33624657 115.04036534 9.4375 119.3125 Z M-84.5625 207.3125 C-87.14206321 211.35079384 -87.72334613 214.25806428 -87 219 C-84.06542733 225.76227616 -80.24535806 228.64979874 -73.5625 231.3125 C-64.53001439 234.23364428 -54.22224294 232.66465856 -45.5625 229.3125 C-47.43618337 222.58928318 -49.65383448 216.00813585 -52 209.4375 C-52.28818604 208.60500732 -52.57637207 207.77251465 -52.87329102 206.91479492 C-55.04411248 200.80696349 -55.04411248 200.80696349 -59.5625 196.3125 C-67.8740784 194.97938268 -78.97857129 201.38044606 -84.5625 207.3125 Z M37.91796875 234.265625 C35.97515 238.26403826 34.54471767 242.35432356 33.125 246.5625 C32.51329943 248.34384569 31.90131478 250.12509386 31.2890625 251.90625 C30.98258789 252.8034375 30.67611328 253.700625 30.36035156 254.625 C28.9334927 258.78025458 27.46734177 262.9214046 26 267.0625 C25.50121857 268.47392882 25.00251214 269.88538416 24.50390625 271.296875 C24.15199219 272.29203125 23.80007812 273.2871875 23.4375 274.3125 C35.76087649 274.56426791 48.20328363 271.56702409 57.375 262.875 C61.58556448 258.29786873 64.05315504 253.59013432 64.4375 247.3125 C63.658135 242.37652167 62.36838547 239.40068929 58.26953125 236.37890625 C53.24131368 233.45203334 42.24997313 228.69749598 37.91796875 234.265625 Z M-24.44921875 305.8515625 C-27.04121361 308.8540034 -29.22385465 311.53361569 -30.8125 315.1875 C-30.17505298 323.15558769 -25.21793976 329.48659192 -19.56640625 334.81640625 C-16.96633821 336.75758765 -14.79266106 337.3125 -11.5625 337.3125 C-9.24189217 334.89520017 -8.58464619 333.59196384 -8.31640625 330.20703125 C-8.60146415 325.69587689 -9.64207943 321.84948889 -11 317.5625 C-11.23009766 316.80839844 -11.46019531 316.05429687 -11.69726562 315.27734375 C-12.97250517 309.46450205 -12.97250517 309.46450205 -16.375 305.125 C-19.57368146 303.93691831 -21.73037289 303.6337048 -24.44921875 305.8515625 Z " fill="#00138C" transform="translate(121.5625,-0.3125)"/>
<path d="M0 0 C72.02242152 0 72.02242152 0 83 9 C89.26248507 15.65389038 91.39266003 21.74245372 91.375 30.75 C91.37367065 31.95499146 91.37367065 31.95499146 91.37231445 33.18432617 C91.25170135 39.21681804 90.28689549 43.85372932 87 49 C86.525625 49.86625 86.05125 50.7325 85.5625 51.625 C83.46256682 54.81689843 81.24369401 57.9073407 79 61 C80.051875 61.680625 81.10375 62.36125 82.1875 63.0625 C87.93558177 67.18157074 91.25194966 72.14519996 93 79 C94.09741522 90.07045385 95.27178325 102.58617892 88.6484375 112.0703125 C88.10445312 112.70710938 87.56046875 113.34390625 87 114 C86.154375 115.010625 85.30875 116.02125 84.4375 117.0625 C82.0127423 118.9898715 79.94424799 120.07466492 77 121 C77 121.66 77 122.32 77 123 C65.66702788 123.8084668 54.36168017 124.10790727 43 124.125 C41.8236499 124.12951172 40.6472998 124.13402344 39.43530273 124.13867188 C26.26220668 124.11772757 13.19015413 123.48852423 0 123 C0 82.41 0 41.82 0 0 Z M29 22 C29 30.58 29 39.16 29 48 C31.97 48.061875 34.94 48.12375 38 48.1875 C38.91910156 48.21481201 39.83820312 48.24212402 40.78515625 48.27026367 C47.4985181 48.33719577 53.25992769 47.45903925 58.4375 42.8125 C60.44829933 39.19306121 61.21110592 36.14092387 61 32 C59.49927609 27.81377013 57.87568011 25.23145219 54 23 C50.95007022 22.04658966 48.20195094 21.88291493 45.015625 21.90234375 C44.17290039 21.90484131 43.33017578 21.90733887 42.46191406 21.90991211 C41.40198242 21.91901611 40.34205078 21.92812012 39.25 21.9375 C34.17625 21.9684375 34.17625 21.9684375 29 22 Z M31 78 C31 86.58 31 95.16 31 104 C46.70879805 105.07976965 46.70879805 105.07976965 60.5 98.875 C62.51552599 95.01190851 63.04065112 91.34153964 63 87 C61.65059235 82.95177706 59.35249252 81.54789431 56 79 C52.99984088 77.99994696 51.02576244 77.88424415 47.89453125 77.90234375 C47.00870361 77.90484131 46.12287598 77.90733887 45.21020508 77.90991211 C43.52834106 77.92356812 43.52834106 77.92356812 41.8125 77.9375 C38.244375 77.958125 34.67625 77.97875 31 78 Z " fill="#02148D" transform="translate(537,199)"/>
<path d="M0 0 C1.02625488 0.16363037 1.02625488 0.16363037 2.07324219 0.33056641 C8.57370982 1.51317413 14.12678808 3.60476269 20.5625 5.75 C20.5625 15.98 20.5625 26.21 20.5625 36.75 C15.52554586 36.75 14.79451616 36.60574336 10.9375 34 C-0.86368736 26.5382627 -15.38547499 23.33579879 -29.19140625 26.3515625 C-32.1228364 27.42048178 -34.22294252 28.53544252 -36.4375 30.75 C-36.60437448 33.33354218 -36.60437448 33.33354218 -36.4375 35.75 C-30.10598221 37.75583331 -23.75269304 39.42096689 -17.27709961 40.89257812 C13.78451365 47.96972856 13.78451365 47.96972856 21.5 59.9375 C26.39767378 68.35485799 25.77356277 79.32936024 24.5625 88.75 C21.53771447 99.79068541 13.99018232 110.29948052 4.5625 116.75 C0.73582674 118.66333663 -3.28288205 119.43788442 -7.44921875 120.28515625 C-9.49600436 120.68264724 -9.49600436 120.68264724 -11.4375 121.75 C-16.31800333 122.10805868 -21.19812957 122.19259163 -26.09033203 122.26489258 C-27.71378315 122.29615596 -29.33701983 122.34350288 -30.95947266 122.40844727 C-43.53677168 122.90413625 -52.87735655 120.78064904 -63.4375 113.75 C-64.01789032 113.38055771 -64.59828064 113.01111542 -65.19625854 112.63047791 C-68.35616512 110.37697003 -69.37247175 109.08462744 -70.11865234 105.24487305 C-70.08723145 103.93043213 -70.05581055 102.61599121 -70.0234375 101.26171875 C-70.01494781 100.55852005 -70.00645813 99.85532135 -69.99771118 99.1308136 C-69.96428324 96.89810955 -69.88904502 94.66910021 -69.8125 92.4375 C-69.78238573 90.9186722 -69.75501245 89.39978741 -69.73046875 87.88085938 C-69.66453363 84.16938466 -69.5610945 80.46005327 -69.4375 76.75 C-65.3783572 76.62857622 -63.66941114 76.9315064 -60.4375 79.4375 C-47.62186222 88.47252464 -32.73150979 90.7812351 -17.4375 89.75 C-13.28396846 88.92769679 -10.3592084 87.75811856 -7.4375 84.5625 C-7.1075 83.964375 -6.7775 83.36625 -6.4375 82.75 C-11.98017987 76.05259515 -21.04167387 75.0609209 -29.125 73.375 C-56.36171729 67.38170092 -56.36171729 67.38170092 -64.0625 56.44140625 C-67.96045497 49.6975012 -68.64019479 44.17527012 -68.6875 36.5 C-68.708125 35.67886719 -68.72875 34.85773438 -68.75 34.01171875 C-68.81097266 24.39328191 -65.82847333 18.1086289 -59.2109375 11.1484375 C-43.01412962 -2.85837946 -20.10150719 -3.22398906 0 0 Z " fill="#03168D" transform="translate(892.4375,198.25)"/>
<path d="M0 0 C3.48245617 2.72312362 3.48245617 2.72312362 3.96484375 5.86328125 C4.21780365 14.41121787 4.21780365 14.41121787 1.05859375 18.28125 C-2.51135532 20.55227394 -6.43881947 21.91193529 -10.44140625 23.21875 C-15.87890686 24.95373038 -15.87890686 24.95373038 -20.44140625 28.21875 C-20.76071765 30.3311458 -20.76071765 30.3311458 -20.73193359 32.78857422 C-20.7446933 33.73650848 -20.757453 34.68444275 -20.77059937 35.66110229 C-20.77282501 36.68817291 -20.77505066 37.71524353 -20.77734375 38.7734375 C-20.78400055 39.82653107 -20.79065735 40.87962463 -20.79751587 41.96463013 C-20.80765504 44.19564056 -20.8123325 46.4266814 -20.81201172 48.65771484 C-20.81637984 52.07309989 -20.85267335 55.48718797 -20.890625 58.90234375 C-20.89649384 61.0677039 -20.90046278 63.23307021 -20.90234375 65.3984375 C-20.91671478 66.42145966 -20.93108582 67.44448181 -20.94589233 68.49850464 C-20.9908742 73.9993155 -20.9908742 73.9993155 -18.64477539 78.81323242 C-14.87751981 81.21634493 -10.65478812 82.11015075 -6.37304688 83.19726562 C-1.54649616 84.5407385 1.45894395 86.05396957 4.55859375 90.21875 C5.1171875 93.19140625 5.1171875 93.19140625 4.99609375 96.28125 C4.97417969 97.30347656 4.95226562 98.32570313 4.9296875 99.37890625 C4.29941562 104.20214476 2.50250812 106.57960988 -1.12890625 109.71875 C-1.77214844 110.2859375 -2.41539062 110.853125 -3.078125 111.4375 C-9.73586031 116.45556165 -14.22663367 117.92468491 -22.50390625 117.90625 C-23.37595703 117.94685547 -24.24800781 117.98746094 -25.14648438 118.02929688 C-28.85824332 118.04896554 -31.41255999 118.02678074 -34.39794922 115.68212891 C-38.44140625 111.11203799 -38.44140625 111.11203799 -38.44140625 108.21875 C-40.09140625 108.21875 -41.74140625 108.21875 -43.44140625 108.21875 C-43.64765625 108.79625 -43.85390625 109.37375 -44.06640625 109.96875 C-46.46104999 113.88725794 -50.16891947 115.79458774 -54.44140625 117.21875 C-63.11536269 118.18427207 -73.03653477 119.1799979 -80.44140625 113.96875 C-82.56640625 112.140625 -82.56640625 112.140625 -84.44140625 110.21875 C-85.17230469 109.62320313 -85.90320313 109.02765625 -86.65625 108.4140625 C-89.79546399 104.5535849 -89.03943184 100.35100483 -88.87109375 95.578125 C-88.27608701 90.92625415 -88.27608701 90.92625415 -86.62890625 88.59375 C-82.20931978 85.30072479 -77.64804304 83.87325845 -72.44140625 82.21875 C-71.04275584 81.70577335 -69.64677514 81.18547459 -68.25317383 80.65893555 C-67.53784988 80.38913376 -66.82252594 80.11933197 -66.08552551 79.84135437 C-65.54296616 79.63589493 -65.0004068 79.43043549 -64.44140625 79.21875 C-64.31482818 72.01068836 -64.22714853 64.80291226 -64.16674805 57.59399414 C-64.14157418 55.14076019 -64.10743262 52.68760145 -64.06420898 50.23461914 C-64.00368656 46.71221384 -63.97522477 43.19079833 -63.953125 39.66796875 C-63.92731857 38.56788986 -63.90151215 37.46781097 -63.87492371 36.33439636 C-63.8738901 33.54048892 -63.91000761 30.96153992 -64.44140625 28.21875 C-66.61538669 25.91221027 -66.61538669 25.91221027 -69.44140625 25.21875 C-70.47136719 24.87972656 -71.50132812 24.54070312 -72.5625 24.19140625 C-73.65691406 23.89105469 -74.75132812 23.59070313 -75.87890625 23.28125 C-80.76882916 21.83587075 -84.52472757 20.4826489 -88.44140625 17.21875 C-90.2988913 13.5037799 -89.87699963 9.27361192 -89.44140625 5.21875 C-86.79368088 -0.07670074 -81.8167077 -1.93207379 -76.44140625 -3.78125 C-71.69920016 -5.06998452 -66.9449414 -4.96497404 -62.06640625 -4.96875 C-61.24140625 -4.98099609 -60.41640625 -4.99324219 -59.56640625 -5.00585938 C-54.47844801 -5.01797356 -50.33931202 -4.30002776 -45.44140625 -2.78125 C-41.84920349 -3.01680428 -38.56839368 -3.53512631 -35.0625 -4.30078125 C-23.12242564 -6.89807442 -10.43548796 -7.11609158 0 0 Z " fill="#02158D" transform="translate(772.44140625,203.78125)"/>
<path d="M0 0 C11.22 0 22.44 0 34 0 C36.16628964 5.752967 38.33147415 11.50632699 40.4937439 17.26080322 C41.28999351 19.379698 42.08656368 21.49847233 42.88345337 23.61712646 C47.61737086 36.20791581 52.31269268 48.8116275 56.91879845 61.44970131 C57.62318358 63.38173655 58.32860782 65.31338917 59.03437805 67.24491882 C59.50120093 68.52273167 59.96801311 69.80054843 60.43481445 71.07836914 C60.66436231 71.70667602 60.89391016 72.33498289 61.13041401 72.98232937 C62.26582857 76.09229582 63.39674204 79.20380618 64.52230835 82.31735229 C70.76336218 103.01241409 70.76336218 103.01241409 82 121 C80.07942708 121.22786458 78.15885417 121.45572917 76.23828125 121.68359375 C73.96414404 121.96933344 73.96414404 121.96933344 71.62890625 122.56640625 C68.49196877 123.08379118 65.78416704 122.83017423 62.625 122.5 C57.8205348 122.06917962 53.71108753 122.01395842 49 123 C45.71428571 115.57142857 45.71428571 115.57142857 45 112 C44.34 112 43.68 112 43 112 C41.82828244 108.71010914 40.66348912 105.41780898 39.5 102.125 C39.16613281 101.18785156 38.83226562 100.25070312 38.48828125 99.28515625 C38.17246094 98.38925781 37.85664063 97.49335938 37.53125 96.5703125 C37.23798828 95.74289551 36.94472656 94.91547852 36.64257812 94.06298828 C36 92 36 92 36 90 C23.13 90 10.26 90 -3 90 C-3.99 93.63 -4.98 97.26 -6 101 C-7.25716333 104.42444208 -8.62264429 107.78004794 -10.01171875 111.15234375 C-11.21857808 114.12743695 -11.21857808 114.12743695 -11 118 C-11.99 118.33 -12.98 118.66 -14 119 C-14.33 119.66 -14.66 120.32 -15 121 C-18.49944037 121.19907807 -21.9995493 121.38213327 -25.5 121.5625 C-26.97339844 121.64661133 -26.97339844 121.64661133 -28.4765625 121.73242188 C-34.14686761 122.01593713 -39.39194484 121.90129458 -45 121 C-44.39369525 117.4277717 -43.42227455 114.40563456 -41.95703125 111.09765625 C-38.25212166 102.39277564 -35.08226382 93.4922554 -31.84286499 84.60604858 C-29.85974149 79.16740087 -27.86672269 73.7323781 -25.875 68.296875 C-25.47000778 67.19099533 -25.06501556 66.08511566 -24.64775085 64.94572449 C-20.85997912 54.60673281 -17.04842448 44.27667873 -13.2147522 33.95462036 C-12.53817362 32.13211332 -11.86251138 30.3092658 -11.18783569 28.48605347 C-10.24610965 25.94162846 -9.3012173 23.39840093 -8.35546875 20.85546875 C-7.95491272 19.77081329 -7.95491272 19.77081329 -7.54626465 18.66424561 C-5.19411475 12.35978368 -2.59477321 6.2274557 0 0 Z M16 32 C9.10940693 48.61285333 9.10940693 48.61285333 6 66 C12.93 66 19.86 66 27 66 C25.82661194 60.71975373 24.72688981 55.79104152 23.125 50.6875 C22.78210938 49.594375 22.43921875 48.50125 22.0859375 47.375 C20.4323695 42.2358534 18.73203835 37.11319832 17 32 C16.67 32 16.34 32 16 32 Z " fill="#03168D" transform="translate(420,199)"/>
<path d="M0 0 C8.11150934 8.11150934 11.47785027 21.50524129 15.41235352 32.06289673 C17.16007261 36.75055279 18.92933282 41.43005177 20.69921875 46.109375 C21.04790009 47.03204666 21.39658142 47.95471832 21.75582886 48.90534973 C24.63773978 56.5075001 27.64838248 64.04736382 30.75 71.5625 C34.00997473 79.46632712 37.20550799 87.38533848 40.25 95.375 C40.56453125 96.19846924 40.8790625 97.02193848 41.203125 97.87036133 C43.18778646 103.12090074 45.01371301 108.41234851 46.75 113.75 C47.41 113.75 48.07 113.75 48.75 113.75 C48.82992187 112.9765625 48.90984375 112.203125 48.9921875 111.40625 C50.02580551 106.41930947 51.93696608 101.94840224 53.875 97.25 C54.79002754 94.99518305 55.70402327 92.73994721 56.6171875 90.484375 C56.8637207 89.87732727 57.11025391 89.27027954 57.36425781 88.64483643 C60.29937728 81.41362161 63.17927284 74.1606441 66.04928589 66.90338135 C66.68418371 65.29837562 67.3198677 63.69368067 67.95632935 62.08929443 C71.6066561 52.88373993 75.18188605 43.65676576 78.61328125 34.3671875 C78.92625153 33.52377808 79.2392218 32.68036865 79.56167603 31.81140137 C81.05990908 27.77290294 82.54538093 23.7306649 84.00683594 19.67871094 C90.5341349 1.85793255 90.5341349 1.85793255 96.75 -1.25 C103.30762352 -1.60768856 109.33642222 -0.57044248 115.75 0.75 C115.13719498 4.24042554 114.23152476 7.35362961 112.9140625 10.640625 C112.51904541 11.63489502 112.12402832 12.62916504 111.71704102 13.65356445 C111.05273071 15.31005005 111.05273071 15.31005005 110.375 17 C109.375063 19.51904908 108.37624883 22.03851854 107.37890625 24.55859375 C107.10249802 25.25611252 106.82608978 25.95363129 106.54130554 26.67228699 C102.40965996 37.11404313 98.36802605 47.59101469 94.3125 58.0625 C93.47359102 60.22731026 92.63464247 62.39210519 91.7956543 64.55688477 C88.35738437 73.4296913 84.92119722 82.30329782 81.4921875 91.1796875 C80.55736429 93.5989864 79.62247175 96.01825851 78.6875 98.4375 C78.23947021 99.59685059 77.79144043 100.75620117 77.32983398 101.95068359 C74.31490496 109.73990554 71.27724896 117.5200562 68.23046875 125.296875 C67.83123703 126.31606522 67.43200531 127.33525543 67.02067566 128.3853302 C65.03771918 133.44667362 63.05317263 138.50738545 61.06616211 143.56713867 C56.87029215 154.26202365 52.74103879 164.97689843 48.75 175.75 C48.09 175.75 47.43 175.75 46.75 175.75 C46.24122314 174.40989868 46.24122314 174.40989868 45.72216797 173.04272461 C37.16861311 150.54303031 28.35231966 128.15621923 19.38470459 105.81845093 C12.93530544 89.75118098 6.55272502 73.66131185 0.2878418 57.52120972 C-5.04141625 43.79213839 -10.47699904 30.10837407 -16 16.45605469 C-16.55078301 15.08919342 -17.10156436 13.72233148 -17.65234375 12.35546875 C-18.13179443 11.17106201 -18.61124512 9.98665527 -19.10522461 8.76635742 C-19.99673541 6.41732439 -20.72868014 4.20054259 -21.25 1.75 C-14.08194563 -1.43580194 -7.53304928 -2.89732665 0 0 Z " fill="#FBFBFD" transform="translate(72.25,142.25)"/>
<path d="M0 0 C32.01 0 64.02 0 97 0 C97 7.59 97 15.18 97 23 C86.11 23 75.22 23 64 23 C64 55.67 64 88.34 64 122 C40 122 40 122 34 121 C34 88.66 34 56.32 34 23 C22.78 23 11.56 23 0 23 C0 15.41 0 7.82 0 0 Z " fill="#03168D" transform="translate(250,199)"/>
<path d="M0 0 C8.6640064 2.21883091 14.66097828 8.15520492 19.2421875 15.57421875 C22.78445204 21.83643641 23.07939767 28.51501478 22.2421875 35.57421875 C20.49513862 41.79288084 16.54376134 46.01933513 11.2421875 49.57421875 C6.89620927 51.02287816 2.63843503 51.46314928 -1.6953125 49.85546875 C-7.51908302 46.74276382 -11.0687942 42.43645315 -13.21875 36.19921875 C-15.33883532 25.87532501 -14.57428038 13.99030974 -9.7265625 4.5703125 C-7.18932497 0.87588894 -4.46693449 -0.37926802 0 0 Z " fill="#00138C" transform="translate(453.7578125,146.42578125)"/>
<path d="M0 0 C5.71573009 4.57258407 6.9236391 10.98279444 8 18 C8.79127645 27.20265353 8.48600959 36.80591318 2.6875 44.4375 C-1.22299139 48.16610807 -4.58070786 50.12726093 -10 50.375 C-14.75326029 50.14908459 -18.16436677 48.77854416 -21.6328125 45.41796875 C-27.31245524 39.12097354 -28.52194568 33.79479514 -28.37890625 25.35546875 C-27.48922973 17.476787 -22.87887492 10.24044506 -17 5 C-11.52041917 0.98707278 -6.79975001 -1.24662083 0 0 Z " fill="#00138C" transform="translate(425,147)"/>
<path d="M0 0 C8.01533102 4.06503496 13.00815552 11.83448331 16.171875 20.0390625 C17.84032356 26.00455311 17.90488335 31.73845483 15.3125 37.4375 C13.36243079 40.78918145 11.75279425 42.66567316 8 44 C2.43962845 44.84151217 -2.23320057 44.16289908 -7.14453125 41.3984375 C-12.83684928 37.10822728 -16.26178587 31.04614861 -17.28515625 24.05078125 C-17.80965516 16.55986096 -15.13903942 9.03951453 -10.54296875 3.125 C-7.18295752 0.00435633 -4.43702294 -0.97614505 0 0 Z " fill="#00138C" transform="translate(389,181)"/>
<path d="M0 0 C5.55094657 3.44158688 8.41285509 7.66028709 10 14 C10.87450189 21.60898373 11.41399489 29.02621892 6.56640625 35.3515625 C1.76063893 40.40900342 -2.052614 44.0742654 -9.3125 44.3125 C-13.93914493 44.244793 -16.501933 43.16491776 -20 40 C-23.41190029 35.45079961 -23.62725953 30.74755378 -23.4765625 25.2265625 C-22.16202126 16.32647179 -16.67035464 7.93935687 -10 2 C-6.49684735 -0.0412601 -4.07737746 -0.57083284 0 0 Z " fill="#00138C" transform="translate(490,181)"/>
<path d="M0 0 C0.7940625 -0.01417969 1.588125 -0.02835937 2.40625 -0.04296875 C4.5 0.1875 4.5 0.1875 6.5 2.1875 C2.19097166 4.40730248 -0.81090292 4.26959933 -5.5 3.1875 C-5.83 2.5275 -6.16 1.8675 -6.5 1.1875 C-4.14653604 0.01076802 -2.6193967 0.02126134 0 0 Z " fill="#CBCFE7" transform="translate(43.5,101.8125)"/>
<path d="M0 0 C0.99 0.33 1.98 0.66 3 1 C3 1.66 3 2.32 3 3 C2.01 3 1.02 3 0 3 C0 2.01 0 1.02 0 0 Z " fill="#FFFFFF" transform="translate(492,338)"/>
<path d="M0 0 C4 1 4 1 4 1 Z " fill="#EEEEEE" transform="translate(493,323)"/>
<path d="M0 0 C0.66 0 1.32 0 2 0 C2 0.66 2 1.32 2 2 C1.34 2 0.68 2 0 2 C0 1.34 0 0.68 0 0 Z " fill="#FFFFFF" transform="translate(509,319)"/>
<path d="" fill="#FFFFFF" transform="translate(0,0)"/>
<path d="" fill="#F6F6F6" transform="translate(0,0)"/>
<path d="" fill="#FAFAFA" transform="translate(0,0)"/>
<path d="" fill="#FAFAFA" transform="translate(0,0)"/>
<path d="" fill="#FFFFFF" transform="translate(0,0)"/>
<path d="" fill="#F4F4F4" transform="translate(0,0)"/>
</svg>
